<svg xmlns="http://www.w3.org/2000/svg" viewBox="0 0 669 205">
  <path fill="#f8f8f8" fill-rule="evenodd" d="M28 28h109v10l4.438-.062c1.52-.022 3.043-.01 4.562.062 1 1 1 1 1.098 3.066L147 48h11q.034 16.01.052 32.023.007 7.433.023 14.867.016 7.169.02 14.336.003 2.742.01 5.482.01 3.825.009 7.651l.01 2.313c-.01 5.214-.01 5.214-1.124 6.328-3.003.142-5.992.042-9 0v11h-11v10H28zm43 40h49v52h-6v7H71Z"/>
  <path fill="#0f0a14" d="M300 38h1v9h-10v19h-16v19h15l.06 5.074q.103 8.352.228 16.704.076 5.057.134 10.115c.046 3.887.104 7.774.164 11.662l.035 3.621c.119 6.827.743 13.189 2.379 19.824l3 1c2.323 2.58 3 3.452 3 7h5v2h2l1.51 3.444c1.052 1.96 1.052 1.96 2.49 3.556 2.957.733 4.87.96 7.828.902l2.27.038c2.385.031 4.767.015 7.152-.002q2.43.02 4.86.048c3.964.041 7.926.039 11.89.014q.04-3.687.063-7.375l.025-2.117c.096-3.881.096-3.881-1.088-7.508a61 61 0 0 1 .121-4.352l.147-2.578.17-2.695.158-2.719q.195-3.328.404-6.656l1.948-.837c2.329-1.013 2.329-1.013 2.88-3.765l.422-3.023c.15-1.003.3-2.006.453-3.04L350 121h1c1.327 6.968 1.088 13.93 1 21h13v10h45v-9h6v9h34V65h2v3h4l1-3h1v13h-2c-.893 4.578-1.121 8.905-1.114 13.566v2.22q.002 3.603.016 7.206l.005 5.019q.006 6.585.024 13.168.014 6.728.02 13.454.016 13.184.049 26.367l4 2v8l32-1 1-13h-33v-2h33l-.14-11.164q-.046-5.362-.08-10.723-.03-3.722-.082-7.444c-.048-3.57-.071-7.138-.089-10.708l-.062-3.353c-.002-6.157.213-9.981 4.453-14.608 2.36-1.023 2.36-1.023 4.75-1.375l2.422-.398L505 93l1-7h25V66h2l.078 1.898.172 2.477.14 2.46c.402 2.353.402 2.353 2.657 3.454L538 77q.062 3.5 0 7l-1 1a143 143 0 0 0-.205 6.448l-.03 2.04q-.047 3.351-.081 6.703l-.063 4.637q-.083 6.114-.153 12.226-.077 6.234-.161 12.467-.162 12.24-.307 24.479h4l1 6 2.875-.062C547 160 547 160 549 161v9h75l2-10h7v-5l3-1 1-10h2v12h-2l.07 1.898.055 2.477.07 2.46C637 165 637 165 635 167l-2 .25-2 .75-2 6h-87l-3-8c-3.04-1.6-3.04-1.6-6-2-.925-6.372-1.207-12.629-1.316-19.062l-.063-3.127q-.097-4.905-.183-9.811l-.131-6.684q-.16-8.157-.307-16.316l-17-1-1 4c-1 3-1 3-4 5-1.937.273-1.937.273-4 .375-3.397.295-3.397.295-5.875 2.688L498 122h-2l.007 1.93q.032 9.902.048 19.805.008 3.7.02 7.4.017 5.306.023 10.611l.015 3.365v3.094l.007 2.739C496 173 496 173 495 174c-2.213.102-4.43.13-6.645.133l-2.124.004c-2.348.002-4.696-.005-7.043-.012l-2.434-.002c-16.304-.013-32.597-.383-48.894-.855l-2.784-.075q-2.6-.07-5.2-.154A181 181 0 0 0 414 173l-1 1c-1.329.118-2.664.17-3.997.193l-2.57.049c-3.887.044-7.773.085-11.66.108q-3.077.025-6.155.082a638 638 0 0 1-8.856.091l-2.778.07c-2.432-.009-4.611-.06-6.984-.593-2.458-2.486-2.458-2.486-4-5-2.425-.835-2.425-.835-5-1-2.687-.312-2.687-.312-5-1l-2-4c-2.527-.656-2.527-.656-5-1l.035 2.371c.01 1.012.018 2.024.027 3.066l.036 3.06C349 173 349 173 348 174c-2.995.114-5.965.164-8.96.168l-2.733.01q-2.867.007-5.735.007c-2.928.002-5.855.02-8.783.04q-2.781.005-5.562.005l-2.662.022-2.477-.01-2.177.005C307 174 307 174 304 172c-.985-2.624-1.422-5.245-2-8h-9v-3l-3-1c-2.149-3.152-2.298-5.992-2.414-9.742l-.117-3.452-.094-3.681-.115-3.759c-.314-11.123-.362-22.24-.26-33.366q-2.47.21-4.937.438l-2.778.246c-2.247.076-2.247.076-3.285 1.316a115 115 0 0 0-.158 5.757l-.03 3.732-.011 2.007q-.019 3.101-.053 6.203c-.062 5.88-.116 11.76-.15 17.64q-.032 5.39-.1 10.78-.021 2.055-.026 4.112c-.005 1.918-.03 3.835-.055 5.753l-.025 3.308C275 170 275 170 273.598 171.85c-2.074 1.494-3.385 1.577-5.934 1.663l-2.84.107-3.199.069-3.388.1c-22.068.545-44.164.293-66.237.212v-3c2.834-1.417 5.31-1.201 8.477-1.281l3.972-.114 4.176-.105c11.726-.25 11.726-.25 23.375-1.5v-9c4 1 4 1 6 3l1 6h28v-8h4v-7l-3 2c-3.199.259-3.199.259-7.117.266l-2.104.005q-2.2.002-4.403-.01c-2.236-.01-4.472 0-6.708.012q-2.143 0-4.285-.007l-3.925-.007c-3.278-.246-5.52-.842-8.458-2.259l-2 2c-1.91.24-1.91.24-4.266.227h-2.67l-2.884-.032-2.951-.008c-3.118-.011-6.236-.037-9.354-.062q-3.165-.016-6.332-.027-7.772-.034-15.543-.098l-1-2 45-1v-8c1-1 1-1 3.563-1.062L235 143v9h32V76h4l.113-2.555.2-3.32.175-3.305c.17-.93.338-1.861.512-2.82 3.527-2.351 5.029-2.214 9.188-2.125l3.292.055L287 62c1.823-3.645.95-8.026.84-12.031C288 47 288 47 290 45c2.729.033 5.297.564 8 1l-.125-2.312C298 41 298 41 300 38"/>
  <path fill="#f5f5f6" d="M550 65q14.25-.034 28.502-.052 6.616-.007 13.234-.023 6.38-.016 12.76-.02 2.44-.003 4.879-.01 3.405-.01 6.81-.009l3.923-.006C623 65 623 65 624 66c.458 2.989.703 5.99 1 9l9 2c3.485 12.196 2 25.316 2 38h-68v13h7l1 6h60v8h-12v10h-75v-10h-13V85l3-1v-8h11z"/>
  <path fill="#f4f4f4" d="m191.432 64.87 2.035-.005q3.345-.004 6.69.002l4.629-.003q4.857-.001 9.714.006 6.24.006 12.48-.004 4.782-.005 9.564 0l4.602-.002q3.212-.003 6.422.007l3.699.002C254 65 254 65 255 66c.143 3.336.042 6.66 0 10h11c1.284 7.858 1.127 15.719 1.098 23.656l-.005 4.54q-.006 5.937-.024 11.876c-.012 4.762-.017 9.525-.023 14.287-.01 7.214-.029 14.427-.046 21.641h-32v-9l-5 1-1 8h-46v-10h-12q-.04-5.969-.062-11.938l-.026-3.384c-.018-6.312.156-12.43 1.088-18.678 1.74-1.74 4.194-1.372 6.563-1.563l3.066-.253L184 106l1-7h51l-1-11-5-2v-4l-1.702.007q-8.734.032-17.47.048-3.262.008-6.526.02c-3.12.013-6.24.018-9.36.023l-2.968.015h-2.73l-2.415.007C185 82 185 82 184 81c-.1-2.511-.139-4.989-.125-7.5l-.012-2.129c.014-6.886.893-6.496 7.569-6.5"/>
  <path fill="#f7f7f7" d="M353 65h33l1 68 21-1 3-4h5V66h33v86h-33v-9h-6v9h-45v-10h-13q-.034-14.838-.052-29.676-.007-6.888-.023-13.778-.016-6.643-.02-13.285-.003-2.54-.01-5.08a2183 2183 0 0 1-.009-7.09l-.01-2.144c.01-4.833.01-4.833 1.124-5.947"/>
  <path fill="#f9f9f9" d="M303 39h21v26h19v20h-19c.051 6.052.114 12.1.208 18.152q.042 3.087.063 6.175c.021 2.959.068 5.917.12 8.876l.003 2.788c.09 5.128.09 5.128 2.428 9.583 3.121 2.044 5.732 2.04 9.428 2.176l6.75.25v19h-40l-1-10-11-1-1-55-15-1V66h16V48l11-1z"/>
  <path fill="#f7f7f8" d="M459 65h32c1 1 1 1 1.098 3.941l-.036 3.621-.027 3.63L492 79c2.94-.184 2.94-.184 6-1 1.298-1.782 1.298-1.782 2-4 2.083-3.806 4.117-5.991 8-8 7.27-1.038 14.7-.453 22 0v19l-23 1-1 7c-3 2-3 2-6.5 2.313-3.5.331-3.5.331-5.187 2.502-2.009 4.872-1.794 9.608-1.825 14.83l-.054 3.408c-.054 3.587-.088 7.173-.122 10.76q-.05 3.651-.103 7.302c-.087 5.962-.147 11.923-.209 17.885h-33z"/>
  <path fill="#66302c" d="M158 57c6.076 2.43 6.076 2.43 8 5 .28 2.999.379 5.788.34 8.786l.002 2.72c-.002 2.971-.026 5.941-.049 8.912q-.009 3.087-.013 6.175c-.011 5.42-.04 10.84-.074 16.26-.03 5.53-.044 11.06-.06 16.59q-.05 16.28-.146 32.557h-8c.03 1.423.03 1.423.063 2.875C158 160 158 160 157 162h-10l.063 2.938C147 168 147 168 146 169a58 58 0 0 1-4.084.18l-2.667.044-2.95.032-3.09.045c-9.428.126-18.858.194-28.287.247-6.337.036-12.673.09-19.01.186-6.122.093-12.243.141-18.366.159q-3.497.021-6.994.09c-18.233.338-18.233.338-23.931-2.908-2.301-2.25-3.953-4.335-5.621-7.075-.56-.674-1.121-1.349-1.7-2.043C28 156 28 156 28 152h109v-10h11v-11l9-1z"/>
  <path fill="#4b333b" d="M536 142h13v10h75v-10h12v13h-3v5h-7l-.437 3.875c-.27 2.382-.485 3.97-1.563 6.125h-75v-9l-8-1-1-6h-4z"/>
  <path fill="#6a3935" d="M63 53h49v10h11v54h-1V79h-5c-1.582-1.426-1.582-1.426-2.812-3.312l-1.27-1.864C112 72 112 72 112 69H72v58h40v1H63z"/>
  <path fill="#090611" d="M531 66h2l.078 1.898.172 2.477.14 2.46c.402 2.353.402 2.353 2.657 3.454L538 77q.062 3.5 0 7l-1 1a143 143 0 0 0-.205 6.448l-.03 2.04q-.047 3.351-.081 6.703l-.063 4.637q-.083 6.114-.153 12.226-.077 6.234-.161 12.467-.162 12.24-.307 24.479h4l1 6 2.875-.062C547 160 547 160 549 161v9h75l2-10h7v-5l3-1 1-10h2v12h-2l.07 1.898.055 2.477.07 2.46C637 165 637 165 635 167l-2 .25-2 .75-2 6h-87l-3-8c-3.04-1.6-3.04-1.6-6-2-.925-6.372-1.207-12.629-1.316-19.062l-.063-3.127q-.097-4.905-.183-9.811l-.131-6.684q-.16-8.157-.307-16.316l-17-1-1 4c-1 3-1 3-4 5-1.937.273-1.937.273-4 .375-3.397.295-3.397.295-5.875 2.688L498 122h-2v37h-1c-1.027-6.685-1.085-13.183-1-19.937q.037-3.108.063-6.215l.035-2.75c.139-2.086.139-2.086-1.098-3.098a108 108 0 0 1-.098-5.566l.01-3.409.026-3.588.013-3.6q.018-4.418.049-8.837l3-1-.219 1.898-.281 2.477-.281 2.46c-.253 2.134-.253 2.134-.219 4.165h10l-.125-2.812C505 106 505 106 507 103c4.693-1.595 9.912-1.11 14.813-1.062l2.677.013q3.255.02 6.51.049V88l-21 2-1 3-2-1v-6h24z"/>
  <path fill="#4b333b" d="M410 143h6v9h33v1l-32 1 32 1v13c-1.883 1.883-5.12 1.13-7.625 1.133l-2.006.003q-2.104 0-4.207-.006-3.23-.005-6.459.007-2.04 0-4.078-.004l-3.773-.004C418 169 418 169 417 168q-.062-3.5 0-7h-6v9c-5.104.224-10.206.386-15.314.494q-2.6.068-5.199.185c-14.324.631-14.324.631-19.687-2.617-2.328-2.251-4.178-4.262-5.8-7.062v-3l-9-1c-3-7.5-3-7.5-3-12h9l2.246 6.152c.608 1.831.608 1.831 1.754 2.848 3.03.089 6.037.115 9.066.098l2.754-.005c2.914-.005 5.828-.018 8.743-.03q2.954-.008 5.912-.014c4.841-.01 9.683-.03 14.525-.049l-23-1v-1h26zm-239-1h12v10h44v1l-42 1c6.212.046 12.422.086 18.634.11q3.17.016 6.34.04c3.037.025 6.072.036 9.108.045l2.87.032h2.668l2.349.014c2.344-.123 2.344-.123 5.031-2.241l1.545.986c3.332 1.376 6.139 1.256 9.74 1.244h2.114q2.205-.006 4.41-.024c2.25-.018 4.498-.02 6.748-.02 7.328.182 7.328.182 14.443-1.186v7h-4v8h-28l-3-7-4-2v9c-4.96 2.48-12.543 1.397-18.057 1.46q-2.682.04-5.365.123c-2.584.08-5.165.112-7.75.136l-2.406.1c-3.413-.012-5.556-.051-8.176-2.373-1.571-1.897-1.571-1.897-2.89-3.794-1.442-2.021-1.442-2.021-4.981-3.152-4.587-2.039-5.163-4.076-7.375-8.5l-1.812-1.687L172 149c.313-2.187.313-2.187 1-4l7 1 1 3 1-6h-11zm19.4-79.227h1.951c2.127 0 4.253.016 6.38.032l4.426.008c3.881.008 7.763.028 11.644.05 3.962.02 7.923.03 11.885.04q11.657.032 23.314.097l-1 2-64 1v15l45 1 1 4 5 2v11h-51l-2-9-2-2c-.454-3.815-.324-7.662-.312-11.5l-.05-3.246-.001-3.098-.01-2.85c.124-.76.246-1.522.373-2.306 3.585-2.39 5.143-2.243 9.4-2.227M290 86h1v55h11c2.603 2.603 1 7.318 1 11h40v-18h1l-.016 1.82q-.029 4.059-.046 8.118l-.026 2.865-.01 2.724-.016 2.524c-.102 1.954-.102 1.954 1.114 2.949a174 174 0 0 1-.437 7.563l-.159 2.154q-.196 2.642-.404 5.283a896 896 0 0 1-14.307.33q-2.433.044-4.865.123c-2.334.073-4.665.106-7 .133-.723.03-1.446.062-2.191.094-2.062.001-2.062.001-5.637-.68-4-4.679-4-4.679-4-8h-2v-2h-5l-1.812-3.312c-1.168-2.071-2.026-3.545-3.813-5.125-4.94-5.614-3.63-15.683-3.57-22.594l.008-3.733c.011-3.912.037-7.824.062-11.736q.017-3.992.027-7.984.034-9.758.098-19.516"/>
  <path fill="#16070d" d="m159 50 2 1v5l4 1v2l3 1c1.115 2.89 1.122 5.697 1.114 8.769v2.85l-.016 3.053-.005 3.144c-.005 3.311-.018 6.623-.03 9.934l-.014 6.738q-.017 8.256-.049 16.512l2-3q-.178 8.298-.372 16.595a3697 3697 0 0 0-.125 5.636q-.089 4.07-.187 8.14l-.05 2.51c-.135 5.426-.602 10.732-1.266 16.119h-9l-.375 2.25c-.58 2.551-1.362 4.477-2.625 6.75h-6l-.25 2.375C150 171 150 171 148.425 172.149c-3.325 1.167-6.499 1.121-9.978 1.094l-2.294.006c-2.51.003-5.021-.007-7.532-.019h-5.304q-5.585-.003-11.17-.024c-4.688-.017-9.376-.02-14.065-.02C77.7 173.185 57.362 173.002 37 172v-2h-2c-3.517-3.08-5.862-5.732-6.375-10.437L29 157l2.125 2.125 1.412 1.374C34 162 34 162 35.227 163.57c2.103 2.532 3.753 4.184 7.009 4.973 2.742.196 5.426.2 8.176.14l3.135.002c3.41-.004 6.817-.051 10.226-.098q3.552-.017 7.104-.026c6.225-.023 12.448-.082 18.673-.148 6.354-.061 12.709-.089 19.063-.119 12.463-.064 24.925-.167 37.387-.293l1-6h10l1-8h8q-.09-17.916-.236-35.83c-.044-5.546-.084-11.091-.11-16.637q-.04-8.024-.117-16.048-.025-3.064-.035-6.13c-.01-2.857-.037-5.713-.07-8.57l.005-2.573c.062-4.237.062-4.237-1.774-7.89-1.74-1.538-1.74-1.538-4.663-2.322z"/>
  <path fill="#4b333b" d="M458 66h1v86h33v1h-33v2h33v13c-1 1-1 1-4.051 1.114q-2.024 0-4.047-.016l-2.148-.005c-2.272-.005-4.544-.018-6.817-.03l-4.61-.014q-5.664-.017-11.327-.049l-.39-6.055c-.428-2.151-.428-2.151-2.648-3.067L454 159q-.07-14.512-.104-29.025-.014-6.74-.047-13.479-.032-6.506-.039-13.013-.004-2.48-.021-4.959c-.015-2.32-.017-4.639-.016-6.958l-.014-3.997c.238-3.53.96-6.287 2.241-9.569h2zm117 16h30c1.502 3.003 1.093 5.79 1.063 9.125l-.028 3.883L606 98c-3.173 1.586-6.588 1.12-10.07 1.098l-2.413-.005c-2.547-.005-5.095-.018-7.642-.03q-2.587-.009-5.176-.014A5665 5665 0 0 1 568 99V88l2.938-.75L574 86zm-367 33h28v13l-6 1c-1.453 2.463-1.453 2.463-2 5-4.104.116-8.207.187-12.312.25l-3.538.102-3.388.039-3.127.063C203 134 203 134 201.158 132.137c-1.434-2.646-1.464-4.398-1.345-7.387l.082-2.703L200 120l7-1zm298-29h1l1 6 1.602-1.457c3.031-1.95 5.19-2.043 8.773-2.23l3.336-.2c3.095-.106 6.192-.113 9.289-.113v14c-1.97.09-1.97.09-3.98.184l-5.207.254-2.62.119c-4.152.206-8.138.444-12.193 1.443l-2 8h-10c-1.125-6.625-1.125-6.625 0-10h-2v50h-1a2877 2877 0 0 1-.22-21.46q-.03-3.649-.082-7.298c-.048-3.5-.071-7-.089-10.5l-.062-3.286c-.002-6.113.261-9.855 4.453-14.456 2.36-1.023 2.36-1.023 4.75-1.375l2.422-.398L505 93z"/>
  <path fill="#0a0511" d="M273 129h1c.632 10.515 1.125 21.028 1.25 31.563l.064 2.719.014 2.534.028 2.233c-.47 2.574-1.251 3.423-3.356 4.951-1.978.432-1.978.432-4.336.512l-2.84.107-3.199.069-3.388.1c-22.068.545-44.164.293-66.237.212v-3c2.834-1.417 5.31-1.201 8.477-1.281l3.972-.114 4.176-.105c11.726-.25 11.726-.25 23.375-1.5v-9c4 1 4 1 6 3l2 6 28 1v-8h4l-.016-2.83q-.026-5.18-.039-10.36-.008-2.244-.02-4.49a1806 1806 0 0 1-.023-6.441l-.016-3.92C272 130 272 130 273 129"/>
  <path fill="#823e35" d="M158 57c6.076 2.43 6.076 2.43 8 5 .28 2.999.379 5.788.34 8.786l.002 2.72c-.002 2.971-.026 5.941-.049 8.912q-.009 3.087-.013 6.175c-.011 5.42-.04 10.84-.074 16.26-.03 5.53-.044 11.06-.06 16.59q-.05 16.28-.146 32.557h-8l1.875-.875c2.258-1.062 2.258-1.062 4.125-3.125a81 81 0 0 0 .25-7.437l.023-2.065c-.016-4.083-.253-6.478-3.273-9.498a136 136 0 0 1-.205-6.264l-.03-2.013q-.047-3.239-.081-6.477c-.02-1.316-.038-2.632-.057-3.988-.068-4.94-.128-9.88-.19-14.82L160 64v68c-2.623 1.312-4.23.896-7.125.563l-2.758-.31L148 132v-1l9-1z"/>
  <path fill="#0b0a14" d="M190.4 62.773h1.951c2.127 0 4.253.016 6.38.032l4.426.008c3.881.008 7.763.028 11.644.05 3.962.02 7.923.03 11.885.04q11.657.032 23.314.097l-1 2-64 1v15c2.26 1.13 3.571 1.153 6.083 1.205l2.547.06 2.753.051 2.816.063q4.462.097 8.926.183l6.043.131q7.416.161 14.832.307v2l-44-1 3 9v3l45-1 1-6-2-1h4v11h-51l-2-9-2-2c-.454-3.815-.324-7.662-.312-11.5l-.05-3.246-.001-3.098-.01-2.85c.124-.76.246-1.522.373-2.306 3.585-2.39 5.143-2.243 9.4-2.227"/>
  <path fill="#06040f" d="m637 85 2 1c1.836 7.975 1.217 16.81 1.25 24.938l.063 3.978.015 3.799.028 3.441c-.398 3.182-.993 3.837-3.356 5.844.3 2.264.3 2.264 1 5 .1 3.002.059 5.997 0 9h-1l-1-8-59-1 1-3 2.043.007q10.486.032 20.973.048 3.92.008 7.837.02c3.746.013 7.491.018 11.237.023l3.564.015h3.275l2.9.007c2.15.123 2.15.123 3.171-1.12.395-1.846.742-3.702 1.063-5.562l.535-3.067L635 118q-12.1.16-24.2.34-5.618.083-11.235.157-5.418.072-10.835.156-2.07.031-4.142.056-2.891.038-5.783.086l-3.331.047c-2.417-.12-2.417-.12-3.474 1.158q.43 3.51 1 7h-4v-11l2.499-.031q11.632-.147 23.265-.308 5.982-.084 11.962-.158 5.768-.072 11.535-.156 2.205-.031 4.41-.056 3.08-.037 6.157-.086c1.17-.015 2.34-.03 3.546-.047 2.551.138 2.551.138 3.626-1.158.159-2.144.251-4.293.316-6.441l.127-3.955.12-4.166.13-4.178q.16-5.13.307-10.26"/>
  <path fill="#4b333b" d="m423.617 62.7 2.227-.014q2.327-.008 4.655-.002c2.361.003 4.722-.02 7.083-.045q2.267-.004 4.535-.002l2.122-.028c4.645.043 7.773 1.041 11.761 3.391v2h-4v-3h-2v87h-1V66h-34v61h-4l1-62c4.188-2.094 7.091-2.307 11.617-2.3"/>
  <path fill="#2b171b" d="M269 88c2.325 3.488 2.257 4.88 2.275 9l.029 3.741-.003 4.044.013 4.143q.01 4.339.002 8.678a1426 1426 0 0 0 .034 11.134c.015 2.85.016 5.701.013 8.552q0 2.053.015 4.106c.013 1.91.004 3.82-.006 5.731l.002 3.297L271 153c-3.722 2.481-5.674 2.258-10.117 2.266l-2.104.005q-2.2.002-4.403-.01c-2.236-.01-4.472 0-6.708.012q-2.143 0-4.285-.007l-3.925-.007c-3.278-.246-5.52-.842-8.458-2.259l-2 2c-1.91.24-1.91.24-4.266.227h-2.67l-2.884-.032-2.951-.008c-3.118-.011-6.236-.037-9.354-.062q-3.165-.016-6.332-.027-7.772-.034-15.543-.098l-1-2 45-1v-8c1-1 1-1 3.563-1.062L235 143v9l33-1z"/>
  <path fill="#301e25" d="M536 142h13v10h75v-9c3.375-.187 3.375-.187 7 0l2 3-2.375.688c-2.828 1.076-2.828 1.076-3.812 3.812L626 153c-2.72 2.72-4.226 2.28-8.035 2.335l-3.845.07-4.183.044-4.291.066q-4.509.068-9.019.118c-3.828.043-7.656.1-11.484.162q-4.44.068-8.88.126-2.115.028-4.23.06c-17.5.262-17.5.262-23.033-.981-2-2-2-2-2.125-5.625L547 146l-11-2z"/>
  <path fill="#5d3a37" d="m148 132 8 1-1.812.5c-2.958 2.028-3.37 4.174-4.38 7.527-1.241 3.03-2.955 4.56-5.87 5.973-2.27.973-2.27.973-3.938 4h-2l-1 4c-25.87 1.038-51.683.99-77.562.563l-2.358-.04Q42.54 155.284 28 155v-3h109v-10h11z"/>
  <path fill="#0e0d16" d="M389 67c2.686 2.686 2.272 4.07 2.319 7.827l.06 3.7.035 4.012q.028 2.048.059 4.094c.051 3.594.09 7.188.128 10.782.04 3.666.091 7.333.141 11q.144 10.792.258 21.585 2.156.039 4.313.063l2.425.035c2.43-.001 2.43-.001 5.262-1.098 2.188.938 2.188.938 4 2l1-3-1 5h-21V69h2z"/>
  <path fill="#2f212a" d="M456 78h2v72l-2 1c-.465 1.895-.465 1.895-.625 4.063L455 159h-1q-.07-14.512-.104-29.025-.014-6.74-.047-13.479-.032-6.506-.039-13.013-.004-2.48-.021-4.959c-.015-2.32-.017-4.639-.016-6.958l-.014-3.997c.238-3.53.96-6.287 2.241-9.569"/>
  <path fill="#292731" d="M324 85h19c1.721 5.164 1.054 10.593 1 16h-16V90l14-2v-2h-17v42h-1z"/>
  <path fill="#1b1923" d="M170 117h1v26h11v7l-2-1v-3h-7c.38 3.297 1.353 4.422 3.563 7.063C179 156 179 156 179 159l3.125.563c3.43.917 4.337 1.955 6.094 4.968 2.34 2.858 3.568 3.428 7.261 4.135 4.296.334 8.59.306 12.895.272q2.272.02 4.543.048c3.694.041 7.387.04 11.082.014v1l-2.69.06q-4.954.118-9.908.257-2.14.058-4.283.105c-2.056.046-4.11.104-6.166.164l-3.745.095c-2.975.296-4.701.76-7.208 2.319a466 466 0 0 1-2.5-3.375l-1.406-1.898C185 166 185 166 185 164h-5l-2-4h-2v-2h-15l-1 3v-4h9z"/>
  <path fill="#88443d" d="M158 57c5 2 5 2 6.298 3.815.803 2.499.943 4.513.93 7.137l-.001 2.972-.032 3.185-.008 3.279c-.011 3.454-.037 6.908-.062 10.362q-.016 3.514-.027 7.027A4920 4920 0 0 1 165 112c-2.404-2.404-2.278-3.049-2.395-6.342l-.11-2.72-.093-2.942-.118-3.01a2125 2125 0 0 1-.346-9.549q-.173-4.779-.357-9.558-.115-2.977-.214-5.956l-.102-2.71-.082-2.398c.008-1.835.008-1.835-1.183-2.815v68c-2.623 1.312-4.23.896-7.125.563l-2.758-.31L148 132v-1l9-1z"/>
  <path fill="#834641" d="M70 68h1v57l-4-1c-.942-11.241-1.09-22.437-.804-33.71q.054-2.158.093-4.318c.04-2.051.099-4.1.164-6.152l.099-3.616C67.034 72.759 67.949 70.783 70 68"/>
  <path fill="#0f0c16" d="M29 157q1.747 1.746 3.488 3.496 1.575 1.565 3.18 3.102c1.48 1.43 2.91 2.914 4.332 4.402v2l2.46.031q11.75.15 23.498.308 6.034.082 12.067.158c22.666.287 45.318.785 67.975 1.503v1q-15.337.035-30.675.052-7.128.007-14.254.023c-21.381.05-42.71.002-64.071-1.075v-2h-2c-3.517-3.08-5.862-5.732-6.375-10.437z"/>
  <path fill="#060612" d="m28.763 24.877 2.343.003 2.682-.004 2.964.01h3.104c3.404 0 6.807.009 10.21.016l7.058.005q9.31.006 18.619.024 9.49.014 18.982.02 18.638.016 37.275.049c-2.396 2.396-2.922 2.255-6.189 2.278l-2.66.034-2.925.007-3.075.03c-3.365.031-6.73.048-10.096.065q-3.494.028-6.987.059c-6.138.051-12.277.09-18.416.128-6.26.04-12.52.091-18.78.141Q44.434 27.886 26 28l-1 3c1.065-5.935 1.065-5.935 3.763-6.123"/>
  <path fill="#0a0913" d="M300 38h1v9l-10 1-1 17h-16l.105 4.523q.043 2.925.082 5.852l.077 2.984.029 2.852.048 2.634L274 86l-3 2-1-3h-3v-9h4l.113-2.555.2-3.32.175-3.305c.17-.93.338-1.861.512-2.82 3.527-2.351 5.029-2.214 9.188-2.125l3.292.055L287 62c1.823-3.645.95-8.026.84-12.031C288 47 288 47 290 45c2.729.033 5.297.564 8 1l-.125-2.312C298 41 298 41 300 38"/>
  <path fill="#0b0a15" d="m556.194 62.741 2.208-.01c2.409-.01 4.818-.003 7.227.003l5.017-.005q5.258-.005 10.514.01c4.498.012 8.996.005 13.495-.007q5.18-.009 10.358 0 2.49.003 4.978-.005c2.315-.005 4.63.003 6.945.014l3.996.005C624 63 624 63 626 65c-.375 2.125-.375 2.125-1 4l-2-3c-3.154-.441-3.154-.441-6.928-.34l-2.159-.002c-2.36.002-4.718.026-7.077.049q-2.451.009-4.902.013c-4.304.011-8.607.04-12.911.074-4.39.03-8.781.044-13.171.06q-12.927.05-25.852.146l-1 9-4-2c.488-6.055.488-6.055 1-8 3.747-2.498 5.713-2.253 10.194-2.259"/>
  <path fill="#34242a" d="M343 134h1l-.016 1.82q-.029 4.059-.046 8.118l-.026 2.865-.01 2.724-.016 2.524c-.102 1.954-.102 1.954 1.114 2.949.04 1.666.043 3.334 0 5l-1-4-3.7.003c-4.533-.003-9.065-.046-13.597-.1a539 539 0 0 0-5.884-.023c-2.821.003-5.64-.033-8.46-.075l-2.655.027c-2.381-.057-4.415-.17-6.704-.832-2.613-2.966-3.76-5.279-5-9-2.504-1.219-2.504-1.219-5-2v-1h9v9h41z"/>
  <path fill="#3a272a" d="M208 115h27v12h-5l1-2.812c1.15-3.108 1.15-3.108 1-6.188-3.399.192-6.792.435-10.187.688l-2.909.162c-5.993.463-5.993.463-10.955 3.732L206 125h-2l2 5c-1.937-.5-1.937-.5-4-2-.688-2.697-.82-5.202-1-8l6-1z"/>
  <path fill="#5d2f2f" d="M112 64h10v15c-5 0-5 0-6.582-1.426l-1.23-1.886-1.27-1.864C112 72 112 72 112 69H72v-1l40-1z"/>
  <path fill="#29161c" d="M352 142h13v10l3.313-.035c13.251-.093 26.452.396 39.687 1.035l-1 2q-8.676.111-17.352.165-2.953.022-5.905.061a999 999 0 0 1-8.481.067c-.882.015-1.763.03-2.671.047h-2.487l-2.187.02c-2.513-.472-3.376-1.35-4.917-3.36-.687-3.187-.687-3.187-1-6l-9-1-1 4z"/>
  <path fill="#090710" d="M576 83h25l-1 3-1.697-.048a809 809 0 0 0-7.615-.14l-2.67-.076-2.569-.029-2.364-.048c-2.621.429-3.362 1.381-5.085 3.341l-2.562 1.438c-2.85 1.533-2.85 1.533-4.438 5.562h30v2h-32V88l7-2z"/>
  <path fill="#0f0e19" d="M474.286 62.242c2.205.07 4.41.125 6.616.178l4.192.13c1.275.039 2.55.076 3.865.115C492 63 492 63 494 65c.856 2.632 1.39 5.295 2 8l5-2c-.541 3.787-2.034 5.627-5 8h-4l-1-13-32-1v-2c4.381-2.19 10.42-.918 15.286-.758"/>
  <path fill="#04020d" d="M388 84c2 2 2 2 2.24 3.91l-.013 2.356v2.67l-.032 2.884-.008 2.951c-.011 3.118-.037 6.236-.062 9.354q-.016 3.165-.027 6.332-.034 7.772-.098 15.543 2.656.039 5.313.063l2.988.035c2.799.025 2.799.025 5.699-1.098 2.188.938 2.188.938 4 2l1-3-1 5c-6.822.112-13.127-.375-20-1z"/>
  <path fill="#4b333b" d="M269 88c2.338 3.506 2.244 4.889 2.227 9.032v3.76l-.032 4.063-.008 4.158c-.008 3.645-.028 7.29-.05 10.934-.02 3.72-.03 7.44-.04 11.16A7738 7738 0 0 1 271 153l-3 1z"/>
  <path fill="#34292c" d="M200 120h1l3 9 24 1v4c-4.104.116-8.207.187-12.312.25l-3.538.102-3.388.039-3.127.063C203 134 203 134 201.158 132.137c-1.434-2.646-1.464-4.398-1.345-7.387l.082-2.703z"/>
  <path fill="#1e0b11" d="M624 143c3.375-.187 3.375-.187 7 0l2 3-2.375.688c-2.836 1.085-2.836 1.085-3.875 3.875L626 153c-1 1-1 1-3.93 1.12l-3.976-.006h-2.188c-2.397 0-4.794-.009-7.191-.016l-4.973-.005q-6.558-.006-13.114-.024-6.687-.014-13.372-.02-13.128-.016-26.256-.049v-1l72-1z"/>
  <path fill="#07060f" d="m325 39 3 2c.34 2.247.34 2.247.293 5.008l-.03 2.988-.075 3.129-.042 3.152A758 758 0 0 1 328 63l3.43-.035 4.445-.028 2.262-.025c5.636-.025 5.636-.025 7.863 1.088l-1 6-2-4-18-1z"/>
  <path fill="#3f3e47" d="M509 63c3.437-.029 6.875-.047 10.313-.062l2.958-.026 2.842-.01 2.619-.016C530 63 530 63 533 64v2h-2v20h-24v-1h23V66h-21z"/>
  <path fill="#441e1b" d="M64 53h47v10c-2-3-2-3-2-6h-2v-2H64z"/>
  <path fill="#170c15" d="m176 155 3 1v3l3.125.563c3.43.917 4.337 1.955 6.094 4.968 2.34 2.858 3.568 3.428 7.261 4.135 4.296.334 8.59.306 12.895.272q2.272.02 4.543.048c3.694.041 7.387.04 11.082.014v1l-2.69.06q-4.954.118-9.908.257-2.14.058-4.283.105c-2.056.046-4.11.104-6.166.164l-3.745.095c-2.975.296-4.701.76-7.208 2.319a466 466 0 0 1-2.5-3.375l-1.406-1.898C185 166 185 166 185 164h-5l-2-4h-2z"/>
  <path fill="#813b34" d="M68 72h1v52h-2c-1.011-12.072-1.005-24.029-.625-36.125l.065-2.204q.096-3.12.208-6.241l.13-3.68C67 73 67 73 68 72"/>
  <path fill="#6b3b39" d="m164 61 2 1v92h-8l1.875-.875c2.258-1.062 2.258-1.062 4.125-3.125.188-2.832.252-5.565.227-8.397v-2.631c0-2.879-.016-5.757-.032-8.636l-.008-5.978a5720 5720 0 0 0-.05-15.752c-.02-5.356-.03-10.711-.04-16.067Q164.066 76.77 164 61"/>
  <path fill="#704c47" d="m158 57 5 2v3l-3-1v71c-2.623 1.312-4.23.896-7.125.563l-2.758-.31L148 132v-1l9-1z"/>
  <path fill="#5a2e28" d="M64 55h5l-2 3c-1.003 3.764-1.15 7.375-1.205 11.259l-.06 3.76-.051 4.032-.063 4.149q-.082 5.442-.153 10.884-.077 5.56-.161 11.121Q65.145 114.102 65 125h7v2h-8z"/>
  <path fill="#100d19" d="M578.216 116.886h3.882l4.195.016 4.292.005q5.644.006 11.289.024 5.761.014 11.522.02 11.303.016 22.604.049l1 3-2 2v-4q-12.1.16-24.2.34-5.617.083-11.235.157-5.418.072-10.835.156-2.07.031-4.142.056-2.891.038-5.783.086l-3.331.047c-2.417-.12-2.417-.12-3.474 1.158q.43 3.51 1 7h-4v-9c3.304-1.101 5.736-1.12 9.216-1.114"/>
  <path fill="#53525b" d="M325 35v3h2l-1 2c-.153 1.885-.25 3.774-.316 5.664l-.127 3.398-.12 3.563-.13 3.586q-.16 4.395-.307 8.789h-1V39h-21v8h-1v-9l19-1-17-1v-1q4.125-.291 8.25-.562l2.355-.17 2.286-.147 2.094-.143c2.151.023 3.956.422 6.015 1.022"/>
  <path fill="#07040f" d="M116 80h6v37h-8v-1h6q-.104-6.968-.262-13.934-.051-2.37-.084-4.74a690 690 0 0 0-.142-6.814l-.02-2.14c-.114-3.966-.114-3.966-2.024-7.341z"/>
  <path fill="#0a0815" d="M110 118h1v9H75v-2h34v-6z"/>
  <path fill="#220e13" d="M209 116h26v11h-5l1-2.812c1.15-3.108 1.15-3.108 1-6.188l-23 1z"/>
  <path fill="#2a2830" d="M605 84h1v14c-3.173 1.586-6.588 1.12-10.07 1.098l-2.413-.005c-2.547-.005-5.095-.018-7.642-.03q-2.587-.009-5.176-.014A5665 5665 0 0 1 568 99V88h1v10h32l2-8h1z"/>
  <path fill="#06040c" d="M325 86h17v2l-15 1v9l-2 1z"/>
  <path fill="#0d0a13" d="M138 28h3l.875 1.938c.953 2.214.953 2.214 3.125 3.062v3h2v2l-9-1z"/>
  <path fill="#4a2121" d="M112 64h10v15h-5l3-1V66h-8z"/>
  <path fill="#2a161c" d="M624 143c3.375-.187 3.375-.187 7 0l2 3-2.375.688c-2.844 1.093-2.844 1.093-3.937 3.937L626 153h-3z"/>
  <path fill="#15111c" d="M636 128c1.457 1.05 1.457 1.05 3 3 .512 3.355.512 3.355.688 7.188l.199 3.855L640 145l-3-1v10h-1z"/>
  <path fill="#080810" d="M256 64h1v5l4 1v2h2v3h-8c-.143-7.429-.143-7.429 1-11"/>
  <path fill="#714c45" d="m158 57 5 2v3l-3-1-1 30h-1z"/>
  <path fill="#190d16" d="m112 72 1.625 2.375c2.677 2.96 4.56 3.671 8.375 4.625l-4 2 2 2c.195 3.04.195 3.04.125 6.625l-.055 3.602L120 96h-1l-.078-2.484-.172-3.266-.14-3.234c-.727-3.597-1.895-4.645-4.61-7.016-1.812-3.125-1.812-3.125-3-6z"/>
  <path fill="#281519" d="M201 120h8c-.812 1.938-.812 1.938-2 4l-3 1 2 5c-1.937-.5-1.937-.5-4-2-.688-2.697-.82-5.202-1-8"/>
  <path fill="#4b333b" d="M276 86h14v10l-2-1v-6l-12-2z"/>
  <path fill="#08080e" d="M148 38c2 1.813 2 1.813 4 4v3h5l1 2h-10z"/>
  <path fill="#160e10" d="M410 143h5v9h-4z"/>
  <path fill="#0a0a14" d="M408 128c.563 1.938.563 1.938 1 4-1 1-1 1-2.785 1.133-5.157-.018-10.13-.225-15.215-1.133l-1-2 2.3.035 3.012.028 2.989.035c2.799.025 2.799.025 5.699-1.098 2.188.938 2.188.938 4 2z"/>
  <path fill="#201119" d="M171 143h11v7l-2-1v-3c-3.417-.167-3.417-.167-7 0l-2 2z"/>
  <path fill="#7c3931" d="M161 112h1l.184 2.152.254 2.785c.08.917.162 1.834.246 2.778.076 2.247.076 2.247 1.316 3.285.141 2.67.042 5.324 0 8h-3z"/>
  <path fill="#14131e" d="m514.25 61.75 3.266.11L520 62v1l-2.336.078-3.039.172-3.023.14c-2.732.321-2.732.321-3.829 2.532L507 68l-2 2h-3c2.64-6.16 5.461-8.545 12.25-8.25"/>
  <path fill="#15090d" d="m159 50 2 1v5l4 1v2l3 1-3 2-1.312-1.437c-1.711-1.8-1.711-1.8-4.688-2.563z"/>
  <path fill="#0b0709" d="M230 143h4v9l-4-2z"/>
  <path fill="#0a0910" d="m575 118-3 2 1 7h-4v-9c3-1 3-1 6 0"/>
  <path fill="#090812" d="M183 100h1v6h-11l-1-2h10z"/>
  <path fill="#211119" d="M293 143h9v7l-3-1-1-3c-2.504-1.219-2.504-1.219-5-2z"/>
  <path fill="#1e1015" d="M354 143q2.469-.04 4.938-.062l2.777-.036C364 143 364 143 365 144c-.176 2.69-.618 5.329-1 8h-1l-1-6-8-2z"/>
  <path fill="#55241e" d="M64 55h5l-2 3a192 192 0 0 0-2 7h-1z"/>
  <path fill="#32242a" d="M624 142h12l-1 3h-6v-1l-5-1z"/>
  <path fill="#3e1c18" d="m148 132 8 1-1.875.813C151.7 134.956 151.7 134.956 150 138h-2z"/>
  <path fill="#562724" d="M147 144c-1.275 2.55-2.492 2.746-5 4-1.71 1.541-1.71 1.541-3 3v-6c2.928-.976 4.956-1.082 8-1"/>
  <path fill="#504548" d="M200 120h1l.586 1.898.789 2.477.773 2.46c.75 2.33.75 2.33 2.852 4.165-1.666.043-3.334.04-5 0-1-1-1-1-1.098-3.285l.036-2.778.027-2.785z"/>
  <path fill="#11101a" d="m494 71 3 2 4-2c-.375 1.938-.375 1.938-1 4-2.49 1.245-3.41.777-6 0z"/>
  <path fill="#371b18" d="M137 143h10v1l-8 1v2h-2z"/>
  <path fill="#09040e" d="m602 83 3 1v10h-1c-2-7.625-2-7.625-2-11"/>
  <path fill="#82615e" d="M158 129h2l-1 4-11-1v-1c.957-.09.957-.09 1.934-.184l2.504-.254c.823-.08 1.647-.162 2.496-.246 2.053-.105 2.053-.105 3.066-1.316"/>
  <path fill="#12121c" d="M250 63h6v5l-2-2c-2.57-.648-2.57-.648-5-1z"/>
  <path fill="#4b333b" d="M274 86l3 0l11 3v11h-14z"/>
  <path fill="#4b333b" d="M326 86h20v14h-20z"/>
  <path fill="#0f0a14" d="M263 76h4v3h-4z"/>
  <path fill="#0f0a14" d="M352 65h35v3h-35z"/>
  <path fill="#0f0a14" d="M409 63h41v3h-41z"/>
  <path fill="#0f0a14" d="M450 63h10v3h-10z"/>
  <path fill="#0f0a14" d="M520 63h11v3h-11z"/>
  <path fill="#0f0a14" d="M538 76h7v3h-7z"/>
  <path fill="#0f0a14" d="M626 76h11v3h-11z"/>
  <path fill="#0f0a14" d="M131 25h6v3h-6z"/>
  <path fill="#0f0a14" d="M305 34h18v2h-18z"/>
  <path fill="#0f0a14" d="M25 28h3v132h-3z"/>
  <path fill="#0f0a14" d="M350 65h3v57h-3z"/>
  <path fill="#0f0a14" d="M326 38h3v27h-3z"/>
  <path fill="#0f0a14" d="M343 65h3v21h-3z"/>
  <path fill="#0f0a14" d="M625 64h3v12h-3z"/>
  <path fill="#0f0a14" d="M634 76h3v10h-3z"/>
  <path fill="#0f0a14" d="M342 128h3v24h-3z"/>
  <path fill="#0f0a14" d="M324 128h21v3h-21z"/>
  <path fill="#4b333b" d="M567 115h69v13h-69z"/>
  <path fill="#4b333b" d="M575 130h6v4h-6z"/>
</svg>
